<svg role="image" viewBox="0 0 24 24" xmlns="http://www.w3.org/2000/svg">
   <g id="g1">
      <path style="fill:#f33d5b;stroke:none;stroke-width:0.0446451" d="M 6.7794562,0.59844687 C 5.9561556,0.70659773 5.1664108,0.84167911 4.4132625,1.2155905 3.7577317,1.5410391 3.1710106,1.9235626 2.6274902,2.4175315 0.67057771,4.1960366 0.5737783,6.6184921 0.5737783,9.0620818 v 4.1966452 c 0,2.563882 -0.323174,5.265264 1.2895425,7.45574 2.5334095,3.441014 6.9281009,2.723356 10.6753622,2.723356 1.679366,0 3.470872,0.175062 5.134196,-0.06377 0.741363,-0.106454 1.47831,-0.323905 2.142968,-0.67226 0.567903,-0.297647 1.088381,-0.671071 1.562546,-1.102005 1.968591,-1.789118 2.05371,-4.234024 2.05371,-6.689197 v -4.419872 c 0,-2.445381 0.27983,-4.9935573 -1.224503,-7.0985809 -2.479842,-3.4700552 -6.738447,-2.81264534 -10.472528,-2.81264534 -1.612103,0 -3.3582413,-0.19088914 -4.9556158,0.0189462 M 11.645781,4.1957558 v 2.5447743 c -0.865364,0.037162 -2.0204878,0.8355357 -1.332225,1.7858067 0.37206,0.5136947 0.927069,0.9061657 1.421516,1.2947103 0.955767,0.7510579 1.950916,1.4584679 2.946581,2.1554719 0.858314,0.600854 1.732687,1.194999 2.318034,2.085817 1.339812,2.03901 0.301738,4.717035 -2.005519,5.395623 -0.801382,0.235695 -1.665525,0.356693 -2.500129,0.363603 v -2.634065 c 0.631377,0 2.073009,-0.344815 1.607227,-1.29471 C 13.733082,15.14194 12.856238,14.515921 12.226168,13.991511 10.69557,12.71759 8.559179,11.748375 7.4062451,10.08892 6.0331484,8.1125791 6.9449728,5.389811 9.1902953,4.6129284 9.9759771,4.3410817 10.818905,4.2312673 11.645781,4.1957587 m 5.803871,4.3752262 H 13.967329 C 13.964771,7.6431726 13.47896,6.8656236 12.494039,6.7851783 V 4.1957587 c 2.029096,0.087135 4.152005,0.7540725 4.789503,2.9019358 0.143738,0.4842776 0.16611,0.972365 0.16611,1.4732904 M 9.726038,15.044532 c 0.088799,1.125163 0.724709,2.047866 1.919743,2.142968 v 2.634065 C 9.5367653,19.655122 7.2972088,19.02805 6.6414906,16.741049 6.4826743,16.187134 6.4222948,15.618796 6.4222948,15.044532 Z" id="path1" />
   </g>
</svg>
